<svg xmlns="http://www.w3.org/2000/svg" width="22" height="19" viewBox="0 0 22 19">
    <metadata>
        <?xpacket begin="﻿" id="W5M0MpCehiHzreSzNTczkc9d"?>
        <x:xmpmeta xmlns:x="adobe:ns:meta/" x:xmptk="Adobe XMP Core 5.6-c138 79.159824, 2016/09/14-01:09:01        ">
            <rdf:RDF xmlns:rdf="http://www.w3.org/1999/02/22-rdf-syntax-ns#">
                <rdf:Description rdf:about="" />
            </rdf:RDF>
        </x:xmpmeta>
        <?xpacket end="w"?>
    </metadata>
    <defs>
        <style>
            .cls-1 {
                fill: #fff;
                fill-rule: evenodd;
            }
        </style>
    </defs>
    <path class="cls-1" d="M546.646,523.92a1.073,1.073,0,0,0,0,1.493,1.014,1.014,0,0,0,1.458,0l3.094-3.166a1,1,0,0,0,.068-0.078c0.01-.012.018-0.024,0.027-0.036s0.023-.031.033-0.047,0.018-.03.027-0.045l0.025-.044c0.008-.015.015-0.031,0.022-0.047s0.015-.03.021-0.046,0.012-.031.017-0.047,0.012-.033.017-0.051,0.008-.031.012-0.047,0.009-.035.013-0.053,0.006-.036.008-0.055,0-.031.007-0.047c0-.034,0-0.068,0-0.1v0h0c0-.035,0-0.069,0-0.1,0-.016,0-0.031-0.007-0.047a0.521,0.521,0,0,0-.008-0.055c0-.018-0.008-0.035-0.013-0.052s-0.007-.033-0.012-0.048-0.011-.034-0.017-0.05a0.459,0.459,0,0,0-.017-0.048c-0.006-.015-0.013-0.03-0.02-0.045s-0.015-.033-0.023-0.048l-0.024-.043c-0.009-.015-0.018-0.031-0.028-0.046l-0.032-.045c-0.009-.012-0.018-0.026-0.028-0.038a0.905,0.905,0,0,0-.065-0.074l0,0-3.094-3.167a1.014,1.014,0,0,0-1.458,0,1.073,1.073,0,0,0,0,1.493l1.333,1.365H536.031a1.056,1.056,0,0,0,0,2.111h11.948ZM555.969,512H542.906a1.044,1.044,0,0,0-1.031,1.056v4.222a1.031,1.031,0,1,0,2.062,0v-3.167h11v14.778h-11v-3.167a1.031,1.031,0,1,0-2.062,0v4.222A1.044,1.044,0,0,0,542.906,531h13.063A1.044,1.044,0,0,0,557,529.944V513.056A1.044,1.044,0,0,0,555.969,512Z" transform="translate(-535 -512)" />
</svg>
