<svg xmlns="http://www.w3.org/2000/svg" width="100%" height="100%" viewBox="0 0 38.41 38.75">
    <metadata>
        <?xpacket begin="﻿" id="W5M0MpCehiHzreSzNTczkc9d"?>
        <x:xmpmeta xmlns:x="adobe:ns:meta/" x:xmptk="Adobe XMP Core 5.6-c138 79.159824, 2016/09/14-01:09:01        ">
            <rdf:RDF xmlns:rdf="http://www.w3.org/1999/02/22-rdf-syntax-ns#">
                <rdf:Description rdf:about="" />
            </rdf:RDF>
        </x:xmpmeta>
        <?xpacket end="w"?>
    </metadata>
    <path class="news-icon-svg" d="M2266.17,53.366V48.019h-30.45V80.764a5.992,5.992,0,0,0,5.96,6.014h26.47a5.992,5.992,0,0,0,5.96-6.014v-27.4h-7.94Zm-5.3,24.058h-19.85v-4.01h19.85v4.01h0Zm0-8.019h-19.85v-4.01h19.85V69.4h0Zm0-12.029v4.01h-19.85V53.366h19.85v4.01h0Zm9.27,23.389a1.985,1.985,0,1,1-3.97,0V57.375h3.97V80.764Z" transform="translate(-2235.72 -48.031)" />
</svg>