<svg xmlns="http://www.w3.org/2000/svg" width="100%" height="100%" viewBox="0 0 37.15 40.031">
    <metadata>
        <?xpacket begin="﻿" id="W5M0MpCehiHzreSzNTczkc9d"?>
        <x:xmpmeta xmlns:x="adobe:ns:meta/" x:xmptk="Adobe XMP Core 5.6-c138 79.159824, 2016/09/14-01:09:01        ">
            <rdf:RDF xmlns:rdf="http://www.w3.org/1999/02/22-rdf-syntax-ns#">
                <rdf:Description rdf:about="" />
            </rdf:RDF>
        </x:xmpmeta>
        <?xpacket end="w"?>
    </metadata>
    <path id="Forma_1" data-name="Forma 1" class="stats-icon-svg" d="M2398.1,75.789l-14.77-5.214V56.361a1.131,1.131,0,0,0-1.22-1.132,16.422,16.422,0,1,0,16.68,22.021,1.151,1.151,0,0,0-.04-0.874A1.129,1.129,0,0,0,2398.1,75.789Zm-0.43-22.994a1.11,1.11,0,0,0-.39-0.848A16.425,16.425,0,0,0,2387.75,48a1.15,1.15,0,0,0-.86.3,1.137,1.137,0,0,0-.36.832V63.35l10.77-9.7A1.114,1.114,0,0,0,2397.67,52.795Zm2.37,5.477a1.129,1.129,0,0,0-.79-0.392,1.114,1.114,0,0,0-.83.291l-10.86,9.777,14.63,5.165a1.146,1.146,0,0,0,1.5-.843A16.372,16.372,0,0,0,2400.04,58.272Z" transform="translate(-2366.88 -48)" />
</svg>
