<svg xmlns="http://www.w3.org/2000/svg" width="100%" height="100%" viewBox="0 0 64.38 34.438">
    <metadata>
        <?xpacket begin="﻿" id="W5M0MpCehiHzreSzNTczkc9d"?>
        <x:xmpmeta xmlns:x="adobe:ns:meta/" x:xmptk="Adobe XMP Core 5.6-c138 79.159824, 2016/09/14-01:09:01        ">
            <rdf:RDF xmlns:rdf="http://www.w3.org/1999/02/22-rdf-syntax-ns">
                <rdf:Description rdf:about="" />
            </rdf:RDF>
        </x:xmpmeta>
        <?xpacket end="w"?>
    </metadata>
    
    <path id="Rectangle_5_copy_2" data-name="Rectangle 5 copy 2" class="submit-comment-icon-svg" d="M2668.26,723.027h-26.44a4.088,4.088,0,0,0-4.11,4.048v18.834a4.089,4.089,0,0,0,4.11,4.049h4.21v6.827a0.687,0.687,0,0,0,.69.683,0.726,0.726,0,0,0,.52-0.223l6.72-7.287h14.29a4.082,4.082,0,0,0,4.11-4.049V727.075A4.079,4.079,0,0,0,2668.26,723.027Zm-22.23,16.538a2.732,2.732,0,1,1,2.77-2.732A2.752,2.752,0,0,1,2646.03,739.565Zm9.01,0a2.732,2.732,0,1,1,2.77-2.732A2.752,2.752,0,0,1,2655.04,739.565Zm9.01,0a2.732,2.732,0,1,1,2.77-2.732A2.752,2.752,0,0,1,2664.05,739.565ZM2608,726h22v5.063h-22V726Zm4.88,8.438H2630v5.125h-17.12v-5.125Zm7.37,8.5H2630V748h-9.75v-5.062Z" transform="translate(-2608 -723.031)" />
</svg>
