<svg xmlns="http://www.w3.org/2000/svg" width="100%" height="100%" viewBox="0 0 45.56 41.562">
    <metadata>
        <?xpacket begin="﻿" id="W5M0MpCehiHzreSzNTczkc9d"?>
        <x:xmpmeta xmlns:x="adobe:ns:meta/" x:xmptk="Adobe XMP Core 5.6-c138 79.159824, 2016/09/14-01:09:01        ">
            <rdf:RDF xmlns:rdf="http://www.w3.org/1999/02/22-rdf-syntax-ns">
                <rdf:Description rdf:about="" />
            </rdf:RDF>
        </x:xmpmeta>
        <?xpacket end="w"?>
    </metadata>
    <path id="Forma_1" data-name="Forma 1" class="comments-icon-svg" d="M2508.77,587.748h-26.43a4.082,4.082,0,0,0-4.11,4.049v14.434a4.082,4.082,0,0,0,4.11,4.048h4.21v6.828a0.677,0.677,0,0,0,.44.637,0.7,0.7,0,0,0,.76-0.177l6.73-7.288h14.29a4.082,4.082,0,0,0,4.11-4.048V591.8A4.082,4.082,0,0,0,2508.77,587.748Zm-22.22,14.338a2.731,2.731,0,1,1,2.77-2.731A2.76,2.76,0,0,1,2486.55,602.086Zm9,0a2.731,2.731,0,1,1,2.78-2.731A2.758,2.758,0,0,1,2495.55,602.086Zm9.01,0a2.731,2.731,0,1,1,2.78-2.731A2.758,2.758,0,0,1,2504.56,602.086Zm15.1-25.876h-26.43a4.082,4.082,0,0,0-4.11,4.049V584.4h23.61a5.466,5.466,0,0,1,5.5,5.414v8.924h1.43a4.082,4.082,0,0,0,4.11-4.049V580.259A4.082,4.082,0,0,0,2519.66,576.21Z" transform="translate(-2478.22 -576.219)" />
</svg>
