<svg xmlns="http://www.w3.org/2000/svg" width="24" height="19" viewBox="0 0 24 19">
    <metadata>
        <?xpacket begin="﻿" id="W5M0MpCehiHzreSzNTczkc9d"?>
        <x:xmpmeta xmlns:x="adobe:ns:meta/" x:xmptk="Adobe XMP Core 5.6-c138 79.159824, 2016/09/14-01:09:01        ">
            <rdf:RDF xmlns:rdf="http://www.w3.org/1999/02/22-rdf-syntax-ns#">
                <rdf:Description rdf:about="" />
            </rdf:RDF>
        </x:xmpmeta>
        <?xpacket end="w"?>
    </metadata>
    <defs>
        <style>
            .cls-1 {
                fill: #fff;
                fill-rule: evenodd;
            }
        </style>
    </defs>
    <path id="Rectangle_10_copy" data-name="Rectangle 10 copy" class="cls-1" d="M555.969,536H542.906a1.044,1.044,0,0,0-1.031,1.056v4.222a1.031,1.031,0,1,0,2.062,0v-3.167h11v14.778h-11v-3.167a1.031,1.031,0,1,0-2.062,0v4.222A1.044,1.044,0,0,0,542.906,555h13.063A1.044,1.044,0,0,0,557,553.944V537.056A1.044,1.044,0,0,0,555.969,536Zm-19,4h2.054v10h-2.054V540ZM533,543.973h10v2.054H533v-2.054Z" transform="translate(-533 -536)" />
</svg>
