<svg xmlns="http://www.w3.org/2000/svg" width="18.5" height="18.5" viewBox="0 0 18.5 18.5">
    <metadata>
        <?xpacket begin="﻿" id="W5M0MpCehiHzreSzNTczkc9d"?>
        <x:xmpmeta xmlns:x="adobe:ns:meta/" x:xmptk="Adobe XMP Core 5.6-c138 79.159824, 2016/09/14-01:09:01        ">
            <rdf:RDF xmlns:rdf="http://www.w3.org/1999/02/22-rdf-syntax-ns#">
                <rdf:Description rdf:about="" />
            </rdf:RDF>
        </x:xmpmeta>
        <?xpacket end="w"?>
    </metadata>
    <defs>
        <style>
            .cls-1 {
                fill: #fff;
                fill-rule: evenodd;
            }
        </style>
    </defs>
    <path id="Forma_1" data-name="Forma 1" class="cls-1" d="M1140.45,208.671v6.569h3.79v-6.569h-3.79Zm2.44,3.321h-1.09v-2.238h1.09v2.238Zm-2.44-6.57h3.79v2.166h-3.79v-2.166Zm-14.69,0h3.79v2.166h-3.79v-2.166Zm0,3.249v6.569h3.79v-6.569h-3.79Zm2.44,3.321h-1.09v-2.238h1.09v2.238Zm6.8-8.194a0.542,0.542,0,1,0,.54.542A0.54,0.54,0,0,0,1135,203.8Zm-1.66,4.873h3.32v4.4h-3.32v-4.4Zm0,5.486h3.32v1.083h-3.32v-1.083Zm1.12-17.4v3.248h1.08v-1.082h2.71V196.76h-3.79Zm-3.83,4.331V215.24h1.63v-7.652h5.48v7.652h1.63V201.091h-8.74Zm4.37,4.873a1.625,1.625,0,1,1,1.62-1.624A1.62,1.62,0,0,1,1135,205.964Z" transform="translate(-1125.75 -196.75)" />
</svg>
