<svg xmlns="http://www.w3.org/2000/svg" width="20.5" height="19.688" viewBox="0 0 20.5 19.688">
    <metadata>
        <?xpacket begin="﻿" id="W5M0MpCehiHzreSzNTczkc9d"?>
        <x:xmpmeta xmlns:x="adobe:ns:meta/" x:xmptk="Adobe XMP Core 5.6-c138 79.159824, 2016/09/14-01:09:01        ">
            <rdf:RDF xmlns:rdf="http://www.w3.org/1999/02/22-rdf-syntax-ns#">
                <rdf:Description rdf:about="" />
            </rdf:RDF>
        </x:xmpmeta>
        <?xpacket end="w"?>
    </metadata>
    <defs>
        <style>
            .cls-1 {
                fill: #fff;
                fill-rule: evenodd;
            }
        </style>
    </defs>
    <path class="cls-1" d="M1135.35,110.417v3.918h-2.7v-3.918h-5.07l1.23-2.665-5.07-2.586c0.02-.052.05-0.1,0.07-0.157l2.46-1.175c0.03-.888.06-1.777,0.08-2.665l4.92,2.508-2.46-5.094c0.68,0.027,2.24.2,2.61-.157q1.275-1.881,2.54-3.762c0.08,0.052.16,0.1,0.23,0.157l2.46,3.762h2.46c-0.79,1.7-1.59,3.4-2.38,5.094q2.49-1.254,5-2.508v2.665c0.84,0.418,1.69.836,2.53,1.254-0.02.052-.05,0.1-0.07,0.156q-2.505,1.254-5,2.508l1.23,2.665h-5.07Z" transform="translate(-1123.75 -94.656)" />
</svg>
