<svg xmlns="http://www.w3.org/2000/svg" xmlns:xlink="http://www.w3.org/1999/xlink" width="100%" height="100%" viewBox="0 0 58.41 34.438">
    <metadata>
        <?xpacket begin="﻿" id="W5M0MpCehiHzreSzNTczkc9d"?>
        <x:xmpmeta xmlns:x="adobe:ns:meta/" x:xmptk="Adobe XMP Core 5.6-c138 79.159824, 2016/09/14-01:09:01        ">
            <rdf:RDF xmlns:rdf="http://www.w3.org/1999/02/22-rdf-syntax-ns">
                <rdf:Description rdf:about="" />
            </rdf:RDF>
        </x:xmpmeta>
        <?xpacket end="w"?>
    </metadata>
    <defs>
        <filter id="filter" filterUnits="userSpaceOnUse">
            <feFlood result="flood" flood-color="\#fff" />
            <feComposite result="composite" operator="in" in2="SourceGraphic" />
            <feBlend result="blend" in2="SourceGraphic" />
        </filter>
    </defs>
    <g id="Group_2_copy" data-name="Group 2 copy" class="new-comment-svg-1">
        <path id="Forma_1" data-name="Forma 1" class="new-comment-svg-2" d="M2642.26,581.027h-26.44a4.088,4.088,0,0,0-4.11,4.048v18.834a4.089,4.089,0,0,0,4.11,4.049h4.21v6.827a0.687,0.687,0,0,0,.69.683,0.726,0.726,0,0,0,.52-0.223l6.72-7.287h14.29a4.082,4.082,0,0,0,4.11-4.049V585.075A4.079,4.079,0,0,0,2642.26,581.027Zm-22.23,16.538a2.732,2.732,0,1,1,2.77-2.732A2.752,2.752,0,0,1,2620.03,597.565Zm9.01,0a2.732,2.732,0,1,1,2.77-2.732A2.752,2.752,0,0,1,2629.04,597.565Zm9.01,0a2.732,2.732,0,1,1,2.77-2.732A2.752,2.752,0,0,1,2638.05,597.565Z" transform="translate(-2611.72 -581.031)" />
        <path id="Rectangle_4_copy" data-name="Rectangle 4 copy" class="new-comment-svg-2" d="M2659.06,585.438h3.63v18.5h-3.63v-18.5Zm-7.43,7.437h18.5V596.5h-18.5v-3.625Z" transform="translate(-2611.72 -581.031)" />
    </g>
</svg>
