<svg xmlns="http://www.w3.org/2000/svg" width="20.18" height="17.25" viewBox="0 0 20.18 17.25">
    <metadata>
        <?xpacket begin="﻿" id="W5M0MpCehiHzreSzNTczkc9d"?>
        <x:xmpmeta xmlns:x="adobe:ns:meta/" x:xmptk="Adobe XMP Core 5.6-c138 79.159824, 2016/09/14-01:09:01        ">
            <rdf:RDF xmlns:rdf="http://www.w3.org/1999/02/22-rdf-syntax-ns#">
                <rdf:Description rdf:about="" />
            </rdf:RDF>
        </x:xmpmeta>
        <?xpacket end="w"?>
    </metadata>
    <defs>
        <style>
            .cls-1 {
                fill: #fff;
                fill-rule: evenodd;
            }
        </style>
    </defs>
    <path id="Forma_1" data-name="Forma 1" class="cls-1" d="M1134.05,158.451a0.7,0.7,0,0,0,.9,0c0.16-.138,3.96-3.418,3.96-6.82a4.412,4.412,0,0,0-8.82,0C1130.09,155.033,1133.89,158.313,1134.05,158.451Zm0.45-7.936a1.116,1.116,0,1,1-1.14,1.116A1.128,1.128,0,0,1,1134.5,150.515Zm8.48,7.934-0.52-1.733a0.664,0.664,0,0,0-.65-0.475h-3.64c-0.13.189-.27,0.38-0.42,0.571a16.059,16.059,0,0,1-2.18,2.327,1.656,1.656,0,0,1-2.14,0,16.059,16.059,0,0,1-2.18-2.327c-0.15-.191-0.29-0.382-0.42-0.571h-3.64a0.664,0.664,0,0,0-.65.475l-0.61,2.065,13.61,2.414Zm1.57,5.356-1.3-4.428-6.48,5.263h7.13a0.663,0.663,0,0,0,.54-0.261A0.626,0.626,0,0,0,1144.55,163.805Zm-16.82-3.772-2.06-.366-1.22,4.138a0.626,0.626,0,0,0,.11.574,0.663,0.663,0,0,0,.54.261h2.63v-4.607Zm0.95,0.168v4.439h6.62l3.3-2.68Z" transform="translate(-1124.41 -147.375)" />
</svg>
