<svg xmlns="http://www.w3.org/2000/svg" width="100%" height="100%" viewBox="0 0 39.88 39.875">
    <metadata>
        <?xpacket begin="﻿" id="W5M0MpCehiHzreSzNTczkc9d"?>
        <x:xmpmeta xmlns:x="adobe:ns:meta/" x:xmptk="Adobe XMP Core 5.6-c138 79.159824, 2016/09/14-01:09:01        ">
            <rdf:RDF xmlns:rdf="http://www.w3.org/1999/02/22-rdf-syntax-ns#">
                <rdf:Description rdf:about="" />
            </rdf:RDF>
        </x:xmpmeta>
        <?xpacket end="w"?>
    </metadata>
    <path id="Forma_1" data-name="Forma 1" class="settings-icon-svg" d="M2526.9,62.567h-3.74a1.433,1.433,0,0,1-1.01-2.447l2.64-2.639a2.059,2.059,0,0,0,0-2.906l-3.37-3.364a2.1,2.1,0,0,0-2.9,0l-2.64,2.639a1.39,1.39,0,0,1-1,.424,1.493,1.493,0,0,1-1.01-.4,1.385,1.385,0,0,1-.44-1.039V49.1a2.054,2.054,0,0,0-2.05-2.054h-4.76a2.054,2.054,0,0,0-2.05,2.054v3.733a1.431,1.431,0,0,1-1.45,1.437,1.394,1.394,0,0,1-1-.424l-2.64-2.639a2.109,2.109,0,0,0-2.91,0l-3.36,3.364a2.059,2.059,0,0,0,0,2.906l2.64,2.639a1.433,1.433,0,0,1-1.01,2.447h-3.74a2.055,2.055,0,0,0-2.05,2.054v4.757a2.055,2.055,0,0,0,2.05,2.056h3.74a1.433,1.433,0,0,1,1.01,2.447l-2.64,2.638a2.059,2.059,0,0,0,0,2.906l3.37,3.364a2.1,2.1,0,0,0,2.9,0l2.64-2.639a1.391,1.391,0,0,1,1-.424,1.432,1.432,0,0,1,1.45,1.437V84.9a2.055,2.055,0,0,0,2.05,2.055h4.76a2.055,2.055,0,0,0,2.05-2.055V81.163a1.431,1.431,0,0,1,1.45-1.437,1.394,1.394,0,0,1,1,.424l2.64,2.639a2.1,2.1,0,0,0,2.9,0l3.37-3.364a2.059,2.059,0,0,0,0-2.906l-2.64-2.638a1.433,1.433,0,0,1,1.01-2.447h3.74a2.055,2.055,0,0,0,2.05-2.055V64.621A2.055,2.055,0,0,0,2526.9,62.567ZM2514.17,67a5.17,5.17,0,1,1-5.17-5.172A5.178,5.178,0,0,1,2514.17,67Z" transform="translate(-2489.06 -47.063)" />
</svg>
